<svg xmlns="http://www.w3.org/2000/svg" width="1120" height="500" viewBox="0 0 1120 500">
<rect width="100%" height="100%" fill="white" />
<text x="560.0" y="28" font-size="18" font-weight="700" text-anchor="middle">Held-out Ablation Metrics</text>
<line x1="64" y1="355" x2="1092" y2="355" stroke="#333" />
<line x1="64" y1="355" x2="64" y2="70" stroke="#333" />
<line x1="60" y1="355.0" x2="1092" y2="355.0" stroke="#ddd" />
<text x="54" y="359.0" font-size="11" text-anchor="end">0</text>
<line x1="60" y1="283.8" x2="1092" y2="283.8" stroke="#ddd" />
<text x="54" y="287.8" font-size="11" text-anchor="end">25</text>
<line x1="60" y1="212.5" x2="1092" y2="212.5" stroke="#ddd" />
<text x="54" y="216.5" font-size="11" text-anchor="end">50</text>
<line x1="60" y1="141.2" x2="1092" y2="141.2" stroke="#ddd" />
<text x="54" y="145.2" font-size="11" text-anchor="end">75</text>
<line x1="60" y1="70.0" x2="1092" y2="70.0" stroke="#ddd" />
<text x="54" y="74.0" font-size="11" text-anchor="end">100</text>
<text x="18" y="212.5" font-size="12" text-anchor="middle" transform="rotate(-90 18,212.5)">Percent</text>
<rect x="78.4" y="188.3" width="16.0" height="166.7" fill="#2f7ed8"><title>Full EvoGuard task_success_rate: 58.5</title></rect>
<rect x="96.4" y="216.2" width="16.0" height="138.8" fill="#2ca02c"><title>Full EvoGuard attack_interception_rate: 48.7</title></rect>
<rect x="114.4" y="355.0" width="16.0" height="0.0" fill="#d62728"><title>Full EvoGuard over_refusal_rate: 0.0</title></rect>
<rect x="132.4" y="208.8" width="16.0" height="146.2" fill="#ff7f0e"><title>Full EvoGuard attack_success_rate: 51.3</title></rect>
<text x="107.2" y="373" font-size="9" text-anchor="end" transform="rotate(-40 107.2,373)">Full EvoGuard</text>
<rect x="181.2" y="188.3" width="16.0" height="166.7" fill="#2f7ed8"><title>No Adaptive Attack Generation task_success_rate: 58.5</title></rect>
<rect x="199.2" y="216.2" width="16.0" height="138.8" fill="#2ca02c"><title>No Adaptive Attack Generation attack_interception_rate: 48.7</title></rect>
<rect x="217.2" y="273.6" width="16.0" height="81.4" fill="#d62728"><title>No Adaptive Attack Generation over_refusal_rate: 28.6</title></rect>
<rect x="235.2" y="208.8" width="16.0" height="146.2" fill="#ff7f0e"><title>No Adaptive Attack Generation attack_success_rate: 51.3</title></rect>
<text x="210.0" y="373" font-size="9" text-anchor="end" transform="rotate(-40 210.0,373)">No Adaptive Attack Generation</text>
<rect x="284.0" y="188.3" width="16.0" height="166.7" fill="#2f7ed8"><title>No Attack Round Weighting task_success_rate: 58.5</title></rect>
<rect x="302.0" y="216.2" width="16.0" height="138.8" fill="#2ca02c"><title>No Attack Round Weighting attack_interception_rate: 48.7</title></rect>
<rect x="320.0" y="355.0" width="16.0" height="0.0" fill="#d62728"><title>No Attack Round Weighting over_refusal_rate: 0.0</title></rect>
<rect x="338.0" y="208.8" width="16.0" height="146.2" fill="#ff7f0e"><title>No Attack Round Weighting attack_success_rate: 51.3</title></rect>
<text x="312.8" y="373" font-size="9" text-anchor="end" transform="rotate(-40 312.8,373)">No Attack Round Weighting</text>
<rect x="386.8" y="188.3" width="16.0" height="166.7" fill="#2f7ed8"><title>No Confidence Weighting task_success_rate: 58.5</title></rect>
<rect x="404.8" y="216.2" width="16.0" height="138.8" fill="#2ca02c"><title>No Confidence Weighting attack_interception_rate: 48.7</title></rect>
<rect x="422.8" y="355.0" width="16.0" height="0.0" fill="#d62728"><title>No Confidence Weighting over_refusal_rate: 0.0</title></rect>
<rect x="440.8" y="208.8" width="16.0" height="146.2" fill="#ff7f0e"><title>No Confidence Weighting attack_success_rate: 51.3</title></rect>
<text x="415.6" y="373" font-size="9" text-anchor="end" transform="rotate(-40 415.6,373)">No Confidence Weighting</text>
<rect x="489.6" y="188.3" width="16.0" height="166.7" fill="#2f7ed8"><title>No Stale Error Penalty task_success_rate: 58.5</title></rect>
<rect x="507.6" y="216.2" width="16.0" height="138.8" fill="#2ca02c"><title>No Stale Error Penalty attack_interception_rate: 48.7</title></rect>
<rect x="525.6" y="355.0" width="16.0" height="0.0" fill="#d62728"><title>No Stale Error Penalty over_refusal_rate: 0.0</title></rect>
<rect x="543.6" y="208.8" width="16.0" height="146.2" fill="#ff7f0e"><title>No Stale Error Penalty attack_success_rate: 51.3</title></rect>
<text x="518.4" y="373" font-size="9" text-anchor="end" transform="rotate(-40 518.4,373)">No Stale Error Penalty</text>
<rect x="592.4" y="180.2" width="16.0" height="174.8" fill="#2f7ed8"><title>No Attribution Reward task_success_rate: 61.3</title></rect>
<rect x="610.4" y="201.5" width="16.0" height="153.5" fill="#2ca02c"><title>No Attribution Reward attack_interception_rate: 53.8</title></rect>
<rect x="628.4" y="355.0" width="16.0" height="0.0" fill="#d62728"><title>No Attribution Reward over_refusal_rate: 0.0</title></rect>
<rect x="646.4" y="223.5" width="16.0" height="131.5" fill="#ff7f0e"><title>No Attribution Reward attack_success_rate: 46.2</title></rect>
<text x="621.2" y="373" font-size="9" text-anchor="end" transform="rotate(-40 621.2,373)">No Attribution Reward</text>
<rect x="695.2" y="172.2" width="16.0" height="182.8" fill="#2f7ed8"><title>No No Tool Trajectory task_success_rate: 64.2</title></rect>
<rect x="713.2" y="128.5" width="16.0" height="226.5" fill="#2ca02c"><title>No No Tool Trajectory attack_interception_rate: 79.5</title></rect>
<rect x="731.2" y="70.0" width="16.0" height="285.0" fill="#d62728"><title>No No Tool Trajectory over_refusal_rate: 100.0</title></rect>
<rect x="749.2" y="296.5" width="16.0" height="58.5" fill="#ff7f0e"><title>No No Tool Trajectory attack_success_rate: 20.5</title></rect>
<text x="724.0" y="373" font-size="9" text-anchor="end" transform="rotate(-40 724.0,373)">No No Tool Trajectory</text>
<rect x="798.0" y="107.6" width="16.0" height="247.4" fill="#2f7ed8"><title>No Clean Tool Trajectory task_success_rate: 86.8</title></rect>
<rect x="816.0" y="70.0" width="16.0" height="285.0" fill="#2ca02c"><title>No Clean Tool Trajectory attack_interception_rate: 100.0</title></rect>
<rect x="834.0" y="110.7" width="16.0" height="244.3" fill="#d62728"><title>No Clean Tool Trajectory over_refusal_rate: 85.7</title></rect>
<rect x="852.0" y="355.0" width="16.0" height="0.0" fill="#ff7f0e"><title>No Clean Tool Trajectory attack_success_rate: 0.0</title></rect>
<text x="826.8" y="373" font-size="9" text-anchor="end" transform="rotate(-40 826.8,373)">No Clean Tool Trajectory</text>
<rect x="900.8" y="188.3" width="16.0" height="166.7" fill="#2f7ed8"><title>Static Attack Pool task_success_rate: 58.5</title></rect>
<rect x="918.8" y="216.2" width="16.0" height="138.8" fill="#2ca02c"><title>Static Attack Pool attack_interception_rate: 48.7</title></rect>
<rect x="936.8" y="273.6" width="16.0" height="81.4" fill="#d62728"><title>Static Attack Pool over_refusal_rate: 28.6</title></rect>
<rect x="954.8" y="208.8" width="16.0" height="146.2" fill="#ff7f0e"><title>Static Attack Pool attack_success_rate: 51.3</title></rect>
<text x="929.6" y="373" font-size="9" text-anchor="end" transform="rotate(-40 929.6,373)">Static Attack Pool</text>
<rect x="1003.6" y="188.3" width="16.0" height="166.7" fill="#2f7ed8"><title>Binary Action Space Proxy task_success_rate: 58.5</title></rect>
<rect x="1021.6" y="216.2" width="16.0" height="138.8" fill="#2ca02c"><title>Binary Action Space Proxy attack_interception_rate: 48.7</title></rect>
<rect x="1039.6" y="355.0" width="16.0" height="0.0" fill="#d62728"><title>Binary Action Space Proxy over_refusal_rate: 0.0</title></rect>
<rect x="1057.6" y="208.8" width="16.0" height="146.2" fill="#ff7f0e"><title>Binary Action Space Proxy attack_success_rate: 51.3</title></rect>
<text x="1032.4" y="373" font-size="9" text-anchor="end" transform="rotate(-40 1032.4,373)">Binary Action Space Proxy</text>
<rect x="790" y="22" width="11" height="11" fill="#2f7ed8" />
<text x="806" y="32" font-size="11">task success rate</text>
<rect x="790" y="40" width="11" height="11" fill="#2ca02c" />
<text x="806" y="50" font-size="11">attack interception rate</text>
<rect x="790" y="58" width="11" height="11" fill="#d62728" />
<text x="806" y="68" font-size="11">over refusal rate</text>
<rect x="790" y="76" width="11" height="11" fill="#ff7f0e" />
<text x="806" y="86" font-size="11">attack success rate</text>
</svg>
