<svg xmlns="http://www.w3.org/2000/svg" width="760" height="420" viewBox="0 0 760 420">
  <rect width="100%" height="100%" fill="white"/>
  <text x="380.0" y="20" text-anchor="middle" font-size="16" font-family="Arial">EvoGuard Attack-Defense Self-Evolution</text>
  <text x="58" y="354.0" text-anchor="end" font-size="12">0%</text><line x1="70" x2="730" y1="350.0" y2="350.0" stroke="#e5e7eb"/>
<text x="58" y="274.0" text-anchor="end" font-size="12">25%</text><line x1="70" x2="730" y1="270.0" y2="270.0" stroke="#e5e7eb"/>
<text x="58" y="194.0" text-anchor="end" font-size="12">50%</text><line x1="70" x2="730" y1="190.0" y2="190.0" stroke="#e5e7eb"/>
<text x="58" y="114.0" text-anchor="end" font-size="12">75%</text><line x1="70" x2="730" y1="110.0" y2="110.0" stroke="#e5e7eb"/>
<text x="58" y="34.0" text-anchor="end" font-size="12">100%</text><line x1="70" x2="730" y1="30.0" y2="30.0" stroke="#e5e7eb"/>
  <line x1="70" x2="70" y1="30" y2="350" stroke="#111827"/>
  <line x1="70" x2="730" y1="350" y2="350" stroke="#111827"/>
  <text x="70.0" y="385" text-anchor="middle" font-size="12">R1</text>
<text x="400.0" y="385" text-anchor="middle" font-size="12">R2</text>
<text x="730.0" y="385" text-anchor="middle" font-size="12">R3</text>
  <polyline points="70.0,350.0 400.0,350.0 730.0,350.0" fill="none" stroke="#dc2626" stroke-width="3"/>
  <polyline points="70.0,30.0 400.0,32.5 730.0,30.0" fill="none" stroke="#2563eb" stroke-width="3"/>
  <polyline points="70.0,350.0 400.0,350.0 730.0,350.0" fill="none" stroke="#f59e0b" stroke-width="3"/>
  <rect x="520" y="48" width="200" height="80" fill="white" stroke="#d1d5db"/>
  <line x1="535" y1="70" x2="575" y2="70" stroke="#dc2626" stroke-width="3"/><text x="585" y="74" font-size="12">Attack success</text>
  <line x1="535" y1="92" x2="575" y2="92" stroke="#2563eb" stroke-width="3"/><text x="585" y="96" font-size="12">Defense interception</text>
  <line x1="535" y1="114" x2="575" y2="114" stroke="#f59e0b" stroke-width="3"/><text x="585" y="118" font-size="12">Over-refusal</text>
</svg>
