<svg xmlns="http://www.w3.org/2000/svg" width="980" height="430" viewBox="0 0 980 430">
<rect width="100%" height="100%" fill="white" />
<text x="490.0" y="28" font-size="18" font-weight="700" text-anchor="middle">Held-out Baseline Metrics</text>
<line x1="64" y1="320" x2="952" y2="320" stroke="#333" />
<line x1="64" y1="320" x2="64" y2="70" stroke="#333" />
<line x1="60" y1="320.0" x2="952" y2="320.0" stroke="#ddd" />
<text x="54" y="324.0" font-size="11" text-anchor="end">0</text>
<line x1="60" y1="257.5" x2="952" y2="257.5" stroke="#ddd" />
<text x="54" y="261.5" font-size="11" text-anchor="end">25</text>
<line x1="60" y1="195.0" x2="952" y2="195.0" stroke="#ddd" />
<text x="54" y="199.0" font-size="11" text-anchor="end">50</text>
<line x1="60" y1="132.5" x2="952" y2="132.5" stroke="#ddd" />
<text x="54" y="136.5" font-size="11" text-anchor="end">75</text>
<line x1="60" y1="70.0" x2="952" y2="70.0" stroke="#ddd" />
<text x="54" y="74.0" font-size="11" text-anchor="end">100</text>
<text x="18" y="195.0" font-size="12" text-anchor="middle" transform="rotate(-90 18,195.0)">Percent</text>
<rect x="90.6" y="254.0" width="18.0" height="66.0" fill="#2f7ed8"><title>No Guard task_success_rate: 26.4</title></rect>
<rect x="110.6" y="320.0" width="18.0" height="0.0" fill="#2ca02c"><title>No Guard attack_interception_rate: 0.0</title></rect>
<rect x="130.6" y="320.0" width="18.0" height="0.0" fill="#d62728"><title>No Guard over_refusal_rate: 0.0</title></rect>
<rect x="150.6" y="70.0" width="18.0" height="250.0" fill="#ff7f0e"><title>No Guard attack_success_rate: 100.0</title></rect>
<text x="126.2" y="338" font-size="10" text-anchor="end" transform="rotate(-35 126.2,338)">No Guard</text>
<rect x="238.6" y="159.6" width="18.0" height="160.4" fill="#2f7ed8"><title>Rule Based Guard task_success_rate: 64.2</title></rect>
<rect x="258.6" y="185.4" width="18.0" height="134.6" fill="#2ca02c"><title>Rule Based Guard attack_interception_rate: 53.8</title></rect>
<rect x="278.6" y="320.0" width="18.0" height="0.0" fill="#d62728"><title>Rule Based Guard over_refusal_rate: 0.0</title></rect>
<rect x="298.6" y="204.6" width="18.0" height="115.4" fill="#ff7f0e"><title>Rule Based Guard attack_success_rate: 46.2</title></rect>
<text x="274.2" y="338" font-size="10" text-anchor="end" transform="rotate(-35 274.2,338)">Rule Based Guard</text>
<rect x="386.6" y="100.7" width="18.0" height="219.3" fill="#2f7ed8"><title>Always Refuse Guard task_success_rate: 87.7</title></rect>
<rect x="406.6" y="70.0" width="18.0" height="250.0" fill="#2ca02c"><title>Always Refuse Guard attack_interception_rate: 100.0</title></rect>
<rect x="426.6" y="105.7" width="18.0" height="214.3" fill="#d62728"><title>Always Refuse Guard over_refusal_rate: 85.7</title></rect>
<rect x="446.6" y="320.0" width="18.0" height="0.0" fill="#ff7f0e"><title>Always Refuse Guard attack_success_rate: 0.0</title></rect>
<text x="422.2" y="338" font-size="10" text-anchor="end" transform="rotate(-35 422.2,338)">Always Refuse Guard</text>
<rect x="534.6" y="70.0" width="18.0" height="250.0" fill="#2f7ed8"><title>Static Guard task_success_rate: 100.0</title></rect>
<rect x="554.6" y="70.0" width="18.0" height="250.0" fill="#2ca02c"><title>Static Guard attack_interception_rate: 100.0</title></rect>
<rect x="574.6" y="320.0" width="18.0" height="0.0" fill="#d62728"><title>Static Guard over_refusal_rate: 0.0</title></rect>
<rect x="594.6" y="320.0" width="18.0" height="0.0" fill="#ff7f0e"><title>Static Guard attack_success_rate: 0.0</title></rect>
<text x="570.2" y="338" font-size="10" text-anchor="end" transform="rotate(-35 570.2,338)">Static Guard</text>
<rect x="682.6" y="254.0" width="18.0" height="66.0" fill="#2f7ed8"><title>EAPO Fixed Contrastive Rollout task_success_rate: 26.4</title></rect>
<rect x="702.6" y="320.0" width="18.0" height="0.0" fill="#2ca02c"><title>EAPO Fixed Contrastive Rollout attack_interception_rate: 0.0</title></rect>
<rect x="722.6" y="320.0" width="18.0" height="0.0" fill="#d62728"><title>EAPO Fixed Contrastive Rollout over_refusal_rate: 0.0</title></rect>
<rect x="742.6" y="70.0" width="18.0" height="250.0" fill="#ff7f0e"><title>EAPO Fixed Contrastive Rollout attack_success_rate: 100.0</title></rect>
<text x="718.2" y="338" font-size="10" text-anchor="end" transform="rotate(-35 718.2,338)">EAPO Fixed Contrastive Rollout</text>
<rect x="830.6" y="70.0" width="18.0" height="250.0" fill="#2f7ed8"><title>EvoGuard Adaptive task_success_rate: 100.0</title></rect>
<rect x="850.6" y="70.0" width="18.0" height="250.0" fill="#2ca02c"><title>EvoGuard Adaptive attack_interception_rate: 100.0</title></rect>
<rect x="870.6" y="320.0" width="18.0" height="0.0" fill="#d62728"><title>EvoGuard Adaptive over_refusal_rate: 0.0</title></rect>
<rect x="890.6" y="320.0" width="18.0" height="0.0" fill="#ff7f0e"><title>EvoGuard Adaptive attack_success_rate: 0.0</title></rect>
<text x="866.2" y="338" font-size="10" text-anchor="end" transform="rotate(-35 866.2,338)">EvoGuard Adaptive</text>
<rect x="650" y="22" width="11" height="11" fill="#2f7ed8" />
<text x="666" y="32" font-size="11">task success rate</text>
<rect x="650" y="40" width="11" height="11" fill="#2ca02c" />
<text x="666" y="50" font-size="11">attack interception rate</text>
<rect x="650" y="58" width="11" height="11" fill="#d62728" />
<text x="666" y="68" font-size="11">over refusal rate</text>
<rect x="650" y="76" width="11" height="11" fill="#ff7f0e" />
<text x="666" y="86" font-size="11">attack success rate</text>
</svg>
